<svg xmlns="http://www.w3.org/2000/svg" viewBox="0 14.479999542236328 35.0099983215332 35.01000213623047" data-asc="0.98974609375" width="35.0099983215332" height="35.01000213623047"><defs/><g fill="#af1818"><g transform="translate(0, 0)"><path d="M35.01 49.49L28.66 49.49L28.66 40.89L6.35 40.89L6.35 49.49L0 49.49L0 31.98Q0 28.15 1.32 24.93Q2.64 21.70 4.98 19.38Q7.32 17.07 10.52 15.77Q13.72 14.48 17.50 14.48L31.81 14.48Q32.47 14.48 33.06 14.72Q33.64 14.97 34.08 15.41Q34.52 15.84 34.77 16.43Q35.01 17.02 35.01 17.68L35.01 49.49M6.35 34.55L28.66 34.55L28.66 20.83L17.50 20.83Q17.21 20.83 16.27 20.91Q15.33 21.00 14.10 21.34Q12.87 21.68 11.50 22.39Q10.13 23.10 8.98 24.34Q7.84 25.59 7.09 27.45Q6.35 29.32 6.35 31.98L6.35 34.55Z"/></g></g></svg>